<svg width="932" height="918" viewBox="0 0 932 918" fill="none" xmlns="http://www.w3.org/2000/svg">
<rect width="932" height="918" fill="white"/>
<path d="M534.252 797.408V767.252C534.252 751.256 527.897 735.915 516.586 724.604C505.275 713.293 489.935 706.939 473.939 706.939H353.313C337.317 706.939 321.976 713.293 310.665 724.604C299.354 735.915 293 751.256 293 767.252V797.408" stroke="black" stroke-width="30.1564" stroke-linecap="round" stroke-linejoin="round"/>
<path d="M413.626 646.626C446.936 646.626 473.939 619.623 473.939 586.313C473.939 553.003 446.936 526 413.626 526C380.316 526 353.313 553.003 353.313 586.313C353.313 619.623 380.316 646.626 413.626 646.626Z" stroke="black" stroke-width="30.1564" stroke-linecap="round" stroke-linejoin="round"/>
<path d="M330.252 504.408V474.252C330.252 458.256 323.897 442.915 312.586 431.604C301.275 420.293 285.935 413.939 269.939 413.939H149.313C133.317 413.939 117.976 420.293 106.665 431.604C95.3544 442.915 89 458.256 89 474.252V504.408" stroke="black" stroke-width="30.1564" stroke-linecap="round" stroke-linejoin="round"/>
<path d="M209.626 353.626C242.936 353.626 269.939 326.623 269.939 293.313C269.939 260.003 242.936 233 209.626 233C176.316 233 149.313 260.003 149.313 293.313C149.313 326.623 176.316 353.626 209.626 353.626Z" stroke="black" stroke-width="30.1564" stroke-linecap="round" stroke-linejoin="round"/>
<path d="M755.252 536L622.563 668.688" stroke="black" stroke-width="24.1252" stroke-linecap="round" stroke-linejoin="round"/>
<path d="M755.252 536L670.814 777.252L622.563 668.688L514 620.438L755.252 536Z" stroke="black" stroke-width="24.1252" stroke-linecap="round" stroke-linejoin="round"/>
<path d="M740.333 69H161.667C116.011 69 79 106.011 79 151.667V730.333C79 775.989 116.011 813 161.667 813H740.333C785.989 813 823 775.989 823 730.333V151.667C823 106.011 785.989 69 740.333 69Z" stroke="black" stroke-width="24.9939" stroke-linecap="round" stroke-linejoin="round"/>
<path d="M557.251 234.925C557.297 252.615 553.164 270.065 545.189 285.855C535.732 304.777 521.194 320.692 503.204 331.817C485.213 342.943 464.48 348.841 443.327 348.849C425.637 348.895 408.186 344.762 392.396 336.786L316 362.252L341.465 285.855C333.49 270.065 329.357 252.615 329.403 234.925C329.411 213.772 335.308 193.039 346.434 175.048C357.56 157.057 373.475 142.52 392.396 133.063C408.186 125.087 425.637 120.954 443.327 121H450.028C477.965 122.542 504.351 134.333 524.135 154.117C543.919 173.901 555.71 200.287 557.251 228.223V234.925Z" stroke="black" stroke-width="26.8057" stroke-linecap="round" stroke-linejoin="round"/>
</svg>
